HIERARCHY
ROOT hip
{
  OFFSET 0 90.174 2.4664
  CHANNELS 6 Xposition Yposition Zposition Zrotation Xrotation Yrotation
  JOINT abdomen
  {
    OFFSET 0 -1.186 -1.5018
    CHANNELS 6 Xposition Yposition Zposition Zrotation Xrotation Yrotation
    JOINT abdomen2
    {
      OFFSET 0 9.964 0.2134
      CHANNELS 6 Xposition Yposition Zposition Zrotation Xrotation Yrotation
      JOINT chest
      {
        OFFSET 0 13.134 -3.2573
        CHANNELS 6 Xposition Yposition Zposition Zrotation Xrotation Yrotation
        JOINT neck
        {
          OFFSET 0 20.686 -1.6905
          CHANNELS 6 Xposition Yposition Zposition Zrotation Xrotation Yrotation
          JOINT head
          {
            OFFSET 0 7.238 -0.1237
            CHANNELS 6 Xposition Yposition Zposition Zrotation Xrotation Yrotation
            End Site
            {
              OFFSET 0 0 0
            }
          }
        }
        JOINT lCollar
        {
          OFFSET 1.7069 20.075 5.0056
          CHANNELS 6 Xposition Yposition Zposition Zrotation Xrotation Yrotation
          JOINT lShldr
          {
            OFFSET 13.6458 -0.047 -4.849
            CHANNELS 6 Xposition Yposition Zposition Zrotation Xrotation Yrotation
            JOINT lForeArm
            {
              OFFSET 28.3255 -0.9759 2.2888
              CHANNELS 6 Xposition Yposition Zposition Zrotation Xrotation Yrotation
              JOINT lHand
              {
                OFFSET 22.1583 -0.53 10.8316
                CHANNELS 6 Xposition Yposition Zposition Zrotation Xrotation Yrotation
                JOINT lThumb1
                {
                  OFFSET 0.786 0.112 2.5817
                  CHANNELS 6 Xposition Yposition Zposition Zrotation Xrotation Yrotation
                  JOINT lThumb2
                  {
                    OFFSET 0.3601 -0.878 4.2331
                    CHANNELS 6 Xposition Yposition Zposition Zrotation Xrotation Yrotation
                    JOINT lThumb2_End
                    {
                      OFFSET 1.8127 -1.216 2.2227
                      CHANNELS 6 Xposition Yposition Zposition Zrotation Xrotation Yrotation
                      End Site
                      {
                        OFFSET 0.0181 -0.0122 0.0222
                      }
                    }
                  }
                }
                JOINT lCarpal1
                {
                  OFFSET 0.9571 1.114 1.7695
                  CHANNELS 6 Xposition Yposition Zposition Zrotation Xrotation Yrotation
                  JOINT lIndex1
                  {
                    OFFSET 4.1246 0.487 4.1451
                    CHANNELS 6 Xposition Yposition Zposition Zrotation Xrotation Yrotation
                    JOINT lIndex2
                    {
                      OFFSET 3.4052 -1.454 2.7682
                      CHANNELS 6 Xposition Yposition Zposition Zrotation Xrotation Yrotation
                      JOINT lIndex2_End
                      {
                        OFFSET 1.4531 -1.795 1.2713
                        CHANNELS 6 Xposition Yposition Zposition Zrotation Xrotation Yrotation
                        End Site
                        {
                          OFFSET 0.0145 -0.0179 0.0127
                        }
                      }
                    }
                  }
                  JOINT lMid1
                  {
                    OFFSET 5.6954 0.21 2.1184
                    CHANNELS 6 Xposition Yposition Zposition Zrotation Xrotation Yrotation
                    JOINT lMid2
                    {
                      OFFSET 3.9766 -1.54 2.3863
                      CHANNELS 6 Xposition Yposition Zposition Zrotation Xrotation Yrotation
                      JOINT lMid2_End
                      {
                        OFFSET 1.4042 -1.926 1.125
                        CHANNELS 6 Xposition Yposition Zposition Zrotation Xrotation Yrotation
                        End Site
                        {
                          OFFSET 0.014 -0.0193 0.0113
                        }
                      }
                    }
                  }
                }
                JOINT lCarpal2
                {
                  OFFSET 2.0956 0.66 -0.3894
                  CHANNELS 6 Xposition Yposition Zposition Zrotation Xrotation Yrotation
                  JOINT lRing1
                  {
                    OFFSET 5.0395 -0.09 2.4971
                    CHANNELS 6 Xposition Yposition Zposition Zrotation Xrotation Yrotation
                    JOINT lRing2
                    {
                      OFFSET 3.7921 -1.552 1.4806
                      CHANNELS 6 Xposition Yposition Zposition Zrotation Xrotation Yrotation
                      JOINT lRing2_End
                      {
                        OFFSET 1.4655 -1.808 0.9609
                        CHANNELS 6 Xposition Yposition Zposition Zrotation Xrotation Yrotation
                        End Site
                        {
                          OFFSET 0.0147 -0.0181 0.0096
                        }
                      }
                    }
                  }
                  JOINT lPinky1
                  {
                    OFFSET 4.9141 -1.269 0.3591
                    CHANNELS 6 Xposition Yposition Zposition Zrotation Xrotation Yrotation
                    JOINT lPinky2
                    {
                      OFFSET 3.1477 -1.685 0.8462
                      CHANNELS 6 Xposition Yposition Zposition Zrotation Xrotation Yrotation
                      JOINT lPinky2_End
                      {
                        OFFSET 0.8055 -1.585 0.7955
                        CHANNELS 6 Xposition Yposition Zposition Zrotation Xrotation Yrotation
                        End Site
                        {
                          OFFSET 0.0081 -0.0158 0.008
                        }
                      }
                    }
                  }
                }
              }
            }
          }
        }
        JOINT rCollar
        {
          OFFSET -1.7069 20.075 5.0056
          CHANNELS 6 Xposition Yposition Zposition Zrotation Xrotation Yrotation
          JOINT rShldr
          {
            OFFSET -13.6458 -0.047 -4.849
            CHANNELS 6 Xposition Yposition Zposition Zrotation Xrotation Yrotation
            JOINT rForeArm
            {
              OFFSET -28.3255 -0.9759 2.2888
              CHANNELS 6 Xposition Yposition Zposition Zrotation Xrotation Yrotation
              JOINT rHand
              {
                OFFSET -22.1583 -0.53 10.8316
                CHANNELS 6 Xposition Yposition Zposition Zrotation Xrotation Yrotation
                JOINT rThumb1
                {
                  OFFSET -0.786 0.112 2.5817
                  CHANNELS 6 Xposition Yposition Zposition Zrotation Xrotation Yrotation
                  JOINT rThumb2
                  {
                    OFFSET -0.3601 -0.878 4.2331
                    CHANNELS 6 Xposition Yposition Zposition Zrotation Xrotation Yrotation
                    JOINT rThumb2_End
                    {
                      OFFSET -1.8127 -1.216 2.2227
                      CHANNELS 6 Xposition Yposition Zposition Zrotation Xrotation Yrotation
                      End Site
                      {
                        OFFSET -0.0181 -0.0122 0.0222
                      }
                    }
                  }
                }
                JOINT rCarpal1
                {
                  OFFSET -0.9571 1.114 1.7695
                  CHANNELS 6 Xposition Yposition Zposition Zrotation Xrotation Yrotation
                  JOINT rIndex1
                  {
                    OFFSET -4.1246 0.487 4.1451
                    CHANNELS 6 Xposition Yposition Zposition Zrotation Xrotation Yrotation
                    JOINT rIndex2
                    {
                      OFFSET -3.4052 -1.454 2.7682
                      CHANNELS 6 Xposition Yposition Zposition Zrotation Xrotation Yrotation
                      JOINT rIndex2_End
                      {
                        OFFSET -1.4531 -1.795 1.2713
                        CHANNELS 6 Xposition Yposition Zposition Zrotation Xrotation Yrotation
                        End Site
                        {
                          OFFSET -0.0145 -0.018 0.0127
                        }
                      }
                    }
                  }
                  JOINT rMid1
                  {
                    OFFSET -5.6954 0.21 2.1184
                    CHANNELS 6 Xposition Yposition Zposition Zrotation Xrotation Yrotation
                    JOINT rMid2
                    {
                      OFFSET -3.9766 -1.54 2.3863
                      CHANNELS 6 Xposition Yposition Zposition Zrotation Xrotation Yrotation
                      JOINT rMid2_End
                      {
                        OFFSET -1.4042 -1.926 1.125
                        CHANNELS 6 Xposition Yposition Zposition Zrotation Xrotation Yrotation
                        End Site
                        {
                          OFFSET -0.014 -0.0193 0.0113
                        }
                      }
                    }
                  }
                }
                JOINT rCarpal2
                {
                  OFFSET -2.0956 0.66 -0.3894
                  CHANNELS 6 Xposition Yposition Zposition Zrotation Xrotation Yrotation
                  JOINT rRing1
                  {
                    OFFSET -5.0395 -0.09 2.4971
                    CHANNELS 6 Xposition Yposition Zposition Zrotation Xrotation Yrotation
                    JOINT rRing2
                    {
                      OFFSET -3.7921 -1.552 1.4806
                      CHANNELS 6 Xposition Yposition Zposition Zrotation Xrotation Yrotation
                      JOINT rRing2_End
                      {
                        OFFSET -1.4655 -1.808 0.9609
                        CHANNELS 6 Xposition Yposition Zposition Zrotation Xrotation Yrotation
                        End Site
                        {
                          OFFSET -0.0147 -0.0181 0.0096
                        }
                      }
                    }
                  }
                  JOINT rPinky1
                  {
                    OFFSET -4.9141 -1.269 0.3592
                    CHANNELS 6 Xposition Yposition Zposition Zrotation Xrotation Yrotation
                    JOINT rPinky2
                    {
                      OFFSET -3.1477 -1.685 0.8462
                      CHANNELS 6 Xposition Yposition Zposition Zrotation Xrotation Yrotation
                      JOINT rPinky2_End
                      {
                        OFFSET -0.8055 -1.585 0.7955
                        CHANNELS 6 Xposition Yposition Zposition Zrotation Xrotation Yrotation
                        End Site
                        {
                          OFFSET -0.0081 -0.0158 0.008
                        }
                      }
                    }
                  }
                }
              }
            }
          }
        }
      }
    }
  }
  JOINT lThigh
  {
    OFFSET 8.367 -8.2066 0.5982
    CHANNELS 6 Xposition Yposition Zposition Zrotation Xrotation Yrotation
    JOINT lShin
    {
      OFFSET 2.1923 -43.463 -0.4932
      CHANNELS 6 Xposition Yposition Zposition Zrotation Xrotation Yrotation
      JOINT lFoot
      {
        OFFSET 0.7333 -45.8593 -2.6451
        CHANNELS 6 Xposition Yposition Zposition Zrotation Xrotation Yrotation
        End Site
        {
          OFFSET 2.6618 -4.2699 12.3931
        }
      }
    }
  }
  JOINT rThigh
  {
    OFFSET -8.367 -8.2066 0.5982
    CHANNELS 6 Xposition Yposition Zposition Zrotation Xrotation Yrotation
    JOINT rShin
    {
      OFFSET -2.1923 -43.463 -0.4931
      CHANNELS 6 Xposition Yposition Zposition Zrotation Xrotation Yrotation
      JOINT rFoot
      {
        OFFSET -0.7333 -45.8593 -2.6451
        CHANNELS 6 Xposition Yposition Zposition Zrotation Xrotation Yrotation
        End Site
        {
          OFFSET -2.6618 -4.2699 12.3931
        }
      }
    }
  }
}
MOTION
Frames:	4
Frame Time:	0.0333333
0 90.174 2.4664 0 0 -0 0 -1.186 -1.5018 0 0 -0 0 9.964 0.2134 0 0 -0 0 13.134 -3.2573 0 0 -0 0 20.686 -1.6905 0 0 -0 0 7.238 -0.1237 0 0 -0 1.7069 20.075 5.0056 0 0 -0 13.6458 -0.047 -4.849 1.66051 0.0835086 5.75766 28.3255 -0.9759 2.2888 -0.0175111 0.895433 15.7816 22.1583 -0.53 10.8316 7.95139e-016 -1.98785e-016 -0 0.786 0.112 2.5817 5.46658e-016 -3.97569e-016 -0 0.3601 -0.878 4.2331 5.96354e-016 0 -0 1.8127 -1.216 2.2227 3.97569e-016 1.98785e-016 9.54166e-015 0.9571 1.114 1.7695 1.49089e-016 -3.97569e-016 -0 4.1246 0.487 4.1451 6.4605e-016 0 3.18055e-015 3.4052 -1.454 2.7682 5.96354e-016 0 3.18055e-015 1.4531 -1.795 1.2713 8.94531e-016 -1.98785e-016 6.36111e-015 5.6954 0.21 2.1184 6.4605e-016 0 3.18055e-015 3.9766 -1.54 2.3863 5.96354e-016 0 3.18055e-015 1.4042 -1.926 1.125 8.94531e-016 -1.98785e-016 6.36111e-015 2.0956 0.66 -0.3894 1.49089e-016 -3.97569e-016 -0 5.0395 -0.09 2.4971 6.4605e-016 0 3.18055e-015 3.7921 -1.552 1.4806 5.96354e-016 0 3.18055e-015 1.4655 -1.808 0.9609 8.94531e-016 -1.98785e-016 6.36111e-015 4.9141 -1.269 0.3591 6.4605e-016 0 3.18055e-015 3.1477 -1.685 0.8462 5.96354e-016 0 3.18055e-015 0.8055 -1.585 0.7955 8.94531e-016 -1.98785e-016 6.36111e-015 -1.7069 20.075 5.0056 0 0 -0 -13.6458 -0.047 -4.849 -1.4496 0.0636048 -5.0245 -28.3255 -0.9759 2.2888 -1.74811 1.20616 -16.8394 -22.1583 -0.53 10.8316 -1.19271e-015 1.98785e-016 -3.18055e-015 -0.786 0.112 2.5817 -3.97569e-016 1.98785e-016 -3.18055e-015 -0.3601 -0.878 4.2331 -2.98177e-016 1.98785e-016 -3.18055e-015 -1.8127 -1.216 2.2227 -2.98177e-016 3.97569e-016 -0 -0.9571 1.114 1.7695 4.96962e-016 0 -6.36111e-015 -4.1246 0.487 4.1451 -9.93923e-017 3.97569e-016 -0 -3.4052 -1.454 2.7682 -8.94531e-016 5.96354e-016 -0 -1.4531 -1.795 1.2713 -3.97569e-016 3.97569e-016 -0 -5.6954 0.21 2.1184 -9.93923e-017 3.97569e-016 -0 -3.9766 -1.54 2.3863 -8.94531e-016 5.96354e-016 -0 -1.4042 -1.926 1.125 -3.97569e-016 3.97569e-016 -0 -2.0956 0.66 -0.3894 4.96962e-016 0 -6.36111e-015 -5.0395 -0.09 2.4971 -9.93923e-017 3.97569e-016 -0 -3.7921 -1.552 1.4806 -8.94531e-016 5.96354e-016 -0 -1.4655 -1.808 0.9609 -3.97569e-016 3.97569e-016 -0 -4.9141 -1.269 0.3592 -9.93923e-017 3.97569e-016 -0 -3.1477 -1.685 0.8462 -8.94531e-016 5.96354e-016 -0 -0.8055 -1.585 0.7955 -3.97569e-016 3.97569e-016 -0 8.367 -8.2066 0.5982 -4.66115 -1.03232 0.120763 2.1923 -43.463 -0.4932 0.00990601 1.55097 0.177175 0.7333 -45.8593 -2.6451 4.65196 -0.54114 -0.255042 -8.367 -8.2066 0.5982 4.66115 -1.03222 -0.120763 -2.1923 -43.463 -0.4931 -0.00990459 1.5509 -0.177176 -0.7333 -45.8593 -2.6451 -4.65196 -0.541171 0.255041 
-7.37864 20.2188 58.1307 180 75.004 -180 0 -1.186 -1.5018 -0.100354 -5.75323 -0.431086 -8.88178e-016 9.964 0.2134 -0.246347 -11.5055 -0.879061 -1.77636e-015 13.134 -3.2573 -0.246347 -11.5055 -0.879061 0 20.686 -1.6905 -5.61236e-006 -31.0028 -3.56346e-006 0 7.238 -0.1237 -2.60623e-007 -15.0017 8.7018e-008 1.7069 20.075 5.0056 -5.9104 -8.01677 -25.2493 13.6458 -0.047 -4.849 8.52213 -1.62792 -14.3054 28.3255 -0.9759 2.2888 33.9322 -24.2483 -21.4048 22.1583 -0.53 10.8316 6.08718 -10.6608 1.64073 0.786 0.112 2.5817 -3.18055e-015 -3.97569e-015 -3.18055e-015 0.3601 -0.878 4.2331 -1.59028e-015 -5.56597e-015 3.18055e-015 1.8127 -1.216 2.2227 -2.64834e-031 -4.77083e-015 -3.18055e-015 0.9571 1.114 1.7695 -3.18055e-015 0 -3.18055e-015 4.1246 0.487 4.1451 4.77083e-015 7.95139e-016 -0 3.4052 -1.454 2.7682 1.59028e-015 -4.77083e-015 -3.18055e-015 1.4531 -1.795 1.2713 2.64834e-031 -4.77083e-015 3.18055e-015 5.6954 0.21 2.1184 4.77083e-015 7.95139e-016 -0 3.9766 -1.54 2.3863 1.59028e-015 -4.77083e-015 -3.18055e-015 1.4042 -1.926 1.125 2.64834e-031 -4.77083e-015 3.18055e-015 2.0956 0.66 -0.3894 -3.18055e-015 0 -3.18055e-015 5.0395 -0.09 2.4971 4.77083e-015 7.95139e-016 -0 3.7921 -1.552 1.4806 1.59028e-015 -4.77083e-015 -3.18055e-015 1.4655 -1.808 0.9609 2.64834e-031 -4.77083e-015 3.18055e-015 4.9141 -1.269 0.3591 4.77083e-015 7.95139e-016 -0 3.1477 -1.685 0.8462 1.59028e-015 -4.77083e-015 -3.18055e-015 0.8055 -1.585 0.7955 2.64834e-031 -4.77083e-015 3.18055e-015 -1.7069 20.075 5.0056 6.50325 -8.0745 24.6984 -13.6458 -0.047 -4.849 -8.94115 -1.75135 16.2045 -28.3255 -0.9759 2.2888 -31.4174 -21.1462 23.1035 -22.1583 -0.53 10.8316 -6.50897 -10.2974 -3.44637 -0.786 0.112 2.5817 -1.23418e-006 4.67959e-008 3.8877e-006 -0.3601 -0.878 4.2331 6.36111e-015 8.74653e-015 -0 -1.8127 -1.216 2.2227 3.18055e-015 7.15625e-015 -0 -0.9571 1.114 1.7695 6.36111e-015 0 -3.18055e-015 -4.1246 0.487 4.1451 -1.23418e-006 4.67959e-008 3.8877e-006 -3.4052 -1.454 2.7682 -3.18055e-015 7.95139e-015 6.36111e-015 -1.4531 -1.795 1.2713 3.18055e-015 8.74653e-015 3.18055e-015 -5.6954 0.21 2.1184 -1.23418e-006 4.67959e-008 3.8877e-006 -3.9766 -1.54 2.3863 -3.18055e-015 7.95139e-015 6.36111e-015 -1.4042 -1.926 1.125 3.18055e-015 8.74653e-015 3.18055e-015 -2.0956 0.66 -0.3894 6.36111e-015 0 -3.18055e-015 -5.0395 -0.09 2.4971 -1.23418e-006 4.67959e-008 3.8877e-006 -3.7921 -1.552 1.4806 -3.18055e-015 7.95139e-015 6.36111e-015 -1.4655 -1.808 0.9609 3.18055e-015 8.74653e-015 3.18055e-015 -4.9141 -1.269 0.3592 -1.23418e-006 4.67959e-008 3.8877e-006 -3.1477 -1.685 0.8462 -3.18055e-015 7.95139e-015 6.36111e-015 -0.8055 -1.585 0.7955 3.18055e-015 8.74653e-015 3.18055e-015 8.367 -8.2066 0.5982 111.366 -45.4301 118.036 2.1923 -43.463 -0.4932 40.1846 77.3743 -46.767 0.7333 -45.8593 -2.6451 34.3449 41.3695 -60.7724 -8.367 -8.2066 0.5982 -111.339 -45.4225 -118.047 -2.1923 -43.463 -0.4931 -40.3323 77.3496 46.9059 -0.7333 -45.8593 -2.6451 -34.3527 41.3388 60.7522 
-7.37817 20.0626 58.2042 180 76.1104 -180 8.88178e-016 -1.186 -1.5018 -0.103503 -5.32508 -0.430043 0 9.964 0.2134 -0.248973 -10.6493 -0.875507 0 13.134 -3.2573 -0.248973 -10.6493 -0.875507 0 20.686 -1.6905 -1.02903e-005 -31.6133 -6.119e-006 0 7.238 -0.1237 -1.54094e-007 -15.4459 -1.84477e-008 1.7069 20.075 5.0056 -5.30833 -8.70521 -25.4057 13.6458 -0.047 -4.849 8.52212 -1.62793 -14.3054 28.3255 -0.9759 2.2888 33.6965 -24.0345 -21.0684 22.1583 -0.53 10.8316 6.54076 -11.229 1.71746 0.786 0.112 2.5817 1.59028e-015 1.59028e-015 6.36111e-015 0.3601 -0.878 4.2331 1.59028e-015 2.38542e-015 -0 1.8127 -1.216 2.2227 1.59028e-015 1.59028e-015 -0 0.9571 1.114 1.7695 4.41391e-032 -7.95139e-016 3.18055e-015 4.1246 0.487 4.1451 -3.18055e-015 -7.95139e-016 1.27222e-014 3.4052 -1.454 2.7682 3.18055e-015 2.38542e-015 3.18055e-015 1.4531 -1.795 1.2713 -1.59028e-015 1.59028e-015 -3.18055e-015 5.6954 0.21 2.1184 -3.18055e-015 -7.95139e-016 1.27222e-014 3.9766 -1.54 2.3863 3.18055e-015 2.38542e-015 3.18055e-015 1.4042 -1.926 1.125 -1.59028e-015 1.59028e-015 -3.18055e-015 2.0956 0.66 -0.3894 4.41391e-032 -7.95139e-016 3.18055e-015 5.0395 -0.09 2.4971 -3.18055e-015 -7.95139e-016 1.27222e-014 3.7921 -1.552 1.4806 3.18055e-015 2.38542e-015 3.18055e-015 1.4655 -1.808 0.9609 -1.59028e-015 1.59028e-015 -3.18055e-015 4.9141 -1.269 0.3591 -3.18055e-015 -7.95139e-016 1.27222e-014 3.1477 -1.685 0.8462 3.18055e-015 2.38542e-015 3.18055e-015 0.8055 -1.585 0.7955 -1.59028e-015 1.59028e-015 -3.18055e-015 -1.7069 20.075 5.0056 5.86913 -8.80313 24.9265 -13.6458 -0.047 -4.849 -8.87389 -1.73361 15.9565 -28.3255 -0.9759 2.2888 -31.2169 -20.9286 22.7393 -22.1583 -0.53 10.8316 -6.93115 -10.8538 -3.56585 -0.786 0.112 2.5817 -0 -7.95139e-016 -0 -0.3601 -0.878 4.2331 6.36111e-015 -1.59028e-015 -6.36111e-015 -1.8127 -1.216 2.2227 -1.76556e-031 -1.59028e-015 -6.36111e-015 -0.9571 1.114 1.7695 -3.18055e-015 -7.95139e-016 -0 -4.1246 0.487 4.1451 -3.18055e-015 -7.95139e-015 3.18055e-015 -3.4052 -1.454 2.7682 6.36111e-015 -7.95139e-016 -0 -1.4531 -1.795 1.2713 3.18055e-015 0 -0 -5.6954 0.21 2.1184 -3.18055e-015 -7.95139e-015 3.18055e-015 -3.9766 -1.54 2.3863 6.36111e-015 -7.95139e-016 -0 -1.4042 -1.926 1.125 3.18055e-015 0 -0 -2.0956 0.66 -0.3894 -3.18055e-015 -7.95139e-016 -0 -5.0395 -0.09 2.4971 -3.18055e-015 -7.95139e-015 3.18055e-015 -3.7921 -1.552 1.4806 6.36111e-015 -7.95139e-016 -0 -1.4655 -1.808 0.9609 3.18055e-015 0 -0 -4.9141 -1.269 0.3592 -3.18055e-015 -7.95139e-015 3.18055e-015 -3.1477 -1.685 0.8462 6.36111e-015 -7.95139e-016 -0 -0.8055 -1.585 0.7955 3.18055e-015 0 -0 8.367 -8.2066 0.5982 109.936 -44.6353 117.042 2.1923 -43.463 -0.4932 40.2301 77.3884 -46.8381 0.7333 -45.8593 -2.6451 35.8768 40.5499 -61.999 -8.367 -8.2066 0.5982 -109.904 -44.591 -117.074 -2.1923 -43.463 -0.4931 -40.3768 77.3634 46.9769 -0.7333 -45.8593 -2.6451 -35.9383 40.5043 62.0214 
-7.37772 19.9063 58.2775 180 77.2185 -180 -8.88178e-016 -1.186 -1.5018 -0.106653 -4.89137 -0.428826 0 9.964 0.2134 -0.251586 -9.78179 -0.871622 0 13.134 -3.2573 -0.251586 -9.78182 -0.871622 1.77636e-015 20.686 -1.6905 -2.98022e-006 -32.2236 1.63501e-007 -1.77636e-015 7.238 -0.1237 -1.0885e-006 -15.8902 -4.17225e-007 1.7069 20.075 5.0056 -4.70634 -9.39594 -25.5553 13.6458 -0.047 -4.849 8.52212 -1.62789 -14.3054 28.3255 -0.9759 2.2888 33.4597 -23.8219 -20.7313 22.1583 -0.53 10.8316 6.99633 -11.7969 1.79895 0.786 0.112 2.5817 -1.59028e-015 1.59028e-015 -0 0.3601 -0.878 4.2331 0 1.59028e-015 -0 1.8127 -1.216 2.2227 -1.59028e-015 7.95139e-016 -0 0.9571 1.114 1.7695 0 0 -0 4.1246 0.487 4.1451 3.18055e-015 1.59028e-015 6.36111e-015 3.4052 -1.454 2.7682 -8.82781e-032 7.95139e-016 6.36111e-015 1.4531 -1.795 1.2713 1.59028e-015 2.38542e-015 -0 5.6954 0.21 2.1184 3.18055e-015 1.59028e-015 6.36111e-015 3.9766 -1.54 2.3863 -8.82781e-032 7.95139e-016 6.36111e-015 1.4042 -1.926 1.125 1.59028e-015 2.38542e-015 -0 2.0956 0.66 -0.3894 0 0 -0 5.0395 -0.09 2.4971 3.18055e-015 1.59028e-015 6.36111e-015 3.7921 -1.552 1.4806 -8.82781e-032 7.95139e-016 6.36111e-015 1.4655 -1.808 0.9609 1.59028e-015 2.38542e-015 -0 4.9141 -1.269 0.3591 3.18055e-015 1.59028e-015 6.36111e-015 3.1477 -1.685 0.8462 -8.82781e-032 7.95139e-016 6.36111e-015 0.8055 -1.585 0.7955 1.59028e-015 2.38542e-015 -0 -1.7069 20.075 5.0056 5.23586 -9.53509 25.1471 -13.6458 -0.047 -4.849 -8.80656 -1.71613 15.7086 -28.3255 -0.9759 2.2888 -31.0151 -20.712 22.3748 -22.1583 -0.53 10.8316 -7.35557 -11.4096 -3.68983 -0.786 0.112 2.5817 -3.18055e-015 3.18055e-015 -3.18055e-015 -0.3601 -0.878 4.2331 0 0 -0 -1.8127 -1.216 2.2227 8.82781e-032 7.95139e-016 -6.36111e-015 -0.9571 1.114 1.7695 -3.18055e-015 0 3.18055e-015 -4.1246 0.487 4.1451 -3.18055e-015 -1.11319e-014 1.59028e-014 -3.4052 -1.454 2.7682 1.76556e-031 1.59028e-015 -6.36111e-015 -1.4531 -1.795 1.2713 -3.18055e-015 7.95139e-016 -3.18055e-015 -5.6954 0.21 2.1184 -3.18055e-015 -1.11319e-014 1.59028e-014 -3.9766 -1.54 2.3863 1.76556e-031 1.59028e-015 -6.36111e-015 -1.4042 -1.926 1.125 -3.18055e-015 7.95139e-016 -3.18055e-015 -2.0956 0.66 -0.3894 -3.18055e-015 0 3.18055e-015 -5.0395 -0.09 2.4971 -3.18055e-015 -1.11319e-014 1.59028e-014 -3.7921 -1.552 1.4806 1.76556e-031 1.59028e-015 -6.36111e-015 -1.4655 -1.808 0.9609 -3.18055e-015 7.95139e-016 -3.18055e-015 -4.9141 -1.269 0.3592 -3.18055e-015 -1.11319e-014 1.59028e-014 -3.1477 -1.685 0.8462 1.76556e-031 1.59028e-015 -6.36111e-015 -0.8055 -1.585 0.7955 -3.18055e-015 7.95139e-016 -3.18055e-015 8.367 -8.2066 0.5982 108.541 -43.8188 116.083 2.1923 -43.463 -0.4932 40.272 77.4017 -46.9077 0.7333 -45.8593 -2.6451 37.3689 39.705 -63.185 -8.367 -8.2066 0.5982 -108.505 -43.7379 -116.139 -2.1923 -43.463 -0.4931 -40.4175 77.3764 47.0463 -0.7333 -45.8593 -2.6451 -37.4824 39.6428 63.2481 
